<mxfile host="app.diagrams.net" modified="2023-06-17T14:41:07.268Z" agent="Mozilla/5.0 (Macintosh; Intel Mac OS X 10_15_7) AppleWebKit/605.1.15 (KHTML, like Gecko) Version/16.5 Safari/605.1.15" etag="jpCCCDjfGSfaHYfpc7D6" version="21.4.0" type="device">
  <diagram name="Seite-1" id="S5l72sn21yenRpGNLV-D">
    <mxGraphModel dx="1085" dy="695" grid="1" gridSize="10" guides="1" tooltips="1" connect="1" arrows="1" fold="1" page="1" pageScale="1" pageWidth="500" pageHeight="500" math="0" shadow="0">
      <root>
        <mxCell id="0" />
        <mxCell id="1" parent="0" />
        <mxCell id="2YdTuyt2Vs7Uolm6UVBZ-35" value="" style="strokeWidth=1;shadow=0;dashed=0;align=center;html=1;shape=mxgraph.mockup.containers.rrect;rSize=0;strokeColor=#666666;fontColor=#666666;fontSize=17;verticalAlign=top;whiteSpace=wrap;fillColor=#ffffff;spacingTop=32;gradientColor=none;fillStyle=auto;" vertex="1" parent="1">
          <mxGeometry width="400" height="530" as="geometry" />
        </mxCell>
        <mxCell id="2YdTuyt2Vs7Uolm6UVBZ-36" value="Manual Processing" style="strokeWidth=1;shadow=0;dashed=0;align=center;html=1;shape=mxgraph.mockup.containers.rrect;rSize=0;fontSize=17;fontColor=#666666;strokeColor=#666666;align=left;spacingLeft=8;fillColor=none;resizeWidth=1;whiteSpace=wrap;" vertex="1" parent="2YdTuyt2Vs7Uolm6UVBZ-35">
          <mxGeometry width="400" height="30" relative="1" as="geometry" />
        </mxCell>
        <mxCell id="2YdTuyt2Vs7Uolm6UVBZ-38" value="Cancel" style="strokeWidth=1;shadow=0;dashed=0;align=center;html=1;shape=mxgraph.mockup.containers.rrect;rSize=0;fontSize=16;fontColor=#666666;strokeColor=#c4c4c4;whiteSpace=wrap;fillColor=none;" vertex="1" parent="2YdTuyt2Vs7Uolm6UVBZ-35">
          <mxGeometry x="0.25" y="1" width="90" height="25" relative="1" as="geometry">
            <mxPoint x="-45" y="-33" as="offset" />
          </mxGeometry>
        </mxCell>
        <mxCell id="2YdTuyt2Vs7Uolm6UVBZ-39" value="Create Command" style="strokeWidth=1;shadow=0;dashed=0;align=center;html=1;shape=mxgraph.mockup.containers.rrect;rSize=0;fontSize=16;fontColor=#ffffff;strokeColor=#001DBC;whiteSpace=wrap;fillColor=#0050ef;" vertex="1" parent="2YdTuyt2Vs7Uolm6UVBZ-35">
          <mxGeometry x="0.75" y="1" width="150.75" height="25" relative="1" as="geometry">
            <mxPoint x="-105.75" y="-33" as="offset" />
          </mxGeometry>
        </mxCell>
        <mxCell id="2YdTuyt2Vs7Uolm6UVBZ-40" value="Pallet" style="shape=ellipse;fillColor=#eeeeee;strokeColor=#999999;gradientColor=#cccccc;html=1;align=left;spacingLeft=4;fontSize=17;fontColor=#666666;labelPosition=right;shadow=0;" vertex="1" parent="2YdTuyt2Vs7Uolm6UVBZ-35">
          <mxGeometry x="40" y="102.46666666666667" width="15" height="17.666666666666668" as="geometry" />
        </mxCell>
        <mxCell id="2YdTuyt2Vs7Uolm6UVBZ-41" value="Cup" style="shape=ellipse;fillColor=#eeeeee;strokeColor=#999999;gradientColor=#cccccc;html=1;align=left;spacingLeft=4;fontSize=17;fontColor=#666666;labelPosition=right;shadow=0;" vertex="1" parent="2YdTuyt2Vs7Uolm6UVBZ-35">
          <mxGeometry x="281" y="102.46666666666667" width="15" height="17.666666666666668" as="geometry" />
        </mxCell>
        <mxCell id="2YdTuyt2Vs7Uolm6UVBZ-42" value="&lt;font style=&quot;font-size: 17px;&quot; color=&quot;#000000&quot;&gt;Select Target:&lt;/font&gt;" style="text;html=1;align=left;verticalAlign=middle;resizable=0;points=[];autosize=1;strokeColor=none;fillColor=none;fontSize=14;" vertex="1" parent="2YdTuyt2Vs7Uolm6UVBZ-35">
          <mxGeometry x="38" y="42.4" width="130" height="30" as="geometry" />
        </mxCell>
        <mxCell id="2YdTuyt2Vs7Uolm6UVBZ-43" value="&lt;font style=&quot;font-size: 17px;&quot; color=&quot;#000000&quot;&gt;Start Destination:&lt;/font&gt;" style="text;html=1;align=left;verticalAlign=middle;resizable=0;points=[];autosize=1;strokeColor=none;fillColor=none;fontSize=14;" vertex="1" parent="2YdTuyt2Vs7Uolm6UVBZ-35">
          <mxGeometry x="38" y="189.62222222222223" width="150" height="30" as="geometry" />
        </mxCell>
        <mxCell id="2YdTuyt2Vs7Uolm6UVBZ-44" value="Mobile Robot" style="strokeWidth=1;shadow=0;dashed=0;align=center;html=1;shape=mxgraph.mockup.forms.comboBox;strokeColor=#999999;fillColor=#ddeeff;align=left;fillColor2=#aaddff;mainText=;fontColor=#666666;fontSize=17;spacingLeft=3;" vertex="1" parent="2YdTuyt2Vs7Uolm6UVBZ-35">
          <mxGeometry x="168" y="189.62222222222223" width="150" height="35.333333333333336" as="geometry" />
        </mxCell>
        <mxCell id="2YdTuyt2Vs7Uolm6UVBZ-46" value="&lt;font style=&quot;font-size: 17px;&quot; color=&quot;#000000&quot;&gt;End Destination:&lt;/font&gt;" style="text;html=1;align=left;verticalAlign=middle;resizable=0;points=[];autosize=1;strokeColor=none;fillColor=none;fontSize=14;" vertex="1" parent="2YdTuyt2Vs7Uolm6UVBZ-35">
          <mxGeometry x="38" y="339.2" width="150" height="30" as="geometry" />
        </mxCell>
        <mxCell id="2YdTuyt2Vs7Uolm6UVBZ-47" value="L17" style="strokeWidth=1;shadow=0;dashed=0;align=center;html=1;shape=mxgraph.mockup.forms.comboBox;strokeColor=#999999;fillColor=#ddeeff;align=left;fillColor2=#aaddff;mainText=;fontColor=#666666;fontSize=17;spacingLeft=3;" vertex="1" parent="2YdTuyt2Vs7Uolm6UVBZ-35">
          <mxGeometry x="168" y="339.2" width="150" height="35.333333333333336" as="geometry" />
        </mxCell>
        <mxCell id="2YdTuyt2Vs7Uolm6UVBZ-48" value="b" style="strokeWidth=1;shadow=0;dashed=0;align=center;html=1;shape=mxgraph.mockup.forms.comboBox;strokeColor=#999999;fillColor=#ddeeff;align=left;fillColor2=#aaddff;mainText=;fontColor=#666666;fontSize=17;spacingLeft=3;" vertex="1" parent="2YdTuyt2Vs7Uolm6UVBZ-35">
          <mxGeometry x="320" y="339.2" width="70" height="35.333333333333336" as="geometry" />
        </mxCell>
        <mxCell id="2YdTuyt2Vs7Uolm6UVBZ-67" value="" style="group" vertex="1" connectable="0" parent="2YdTuyt2Vs7Uolm6UVBZ-35">
          <mxGeometry x="349" y="82.44444444444444" width="40" height="56.53333333333333" as="geometry" />
        </mxCell>
        <mxCell id="2YdTuyt2Vs7Uolm6UVBZ-66" value="" style="shape=cylinder3;whiteSpace=wrap;html=1;boundedLbl=1;backgroundOutline=1;size=4.666666666666657;" vertex="1" parent="2YdTuyt2Vs7Uolm6UVBZ-67">
          <mxGeometry x="5" y="21.2" width="30" height="35.333333333333336" as="geometry" />
        </mxCell>
        <mxCell id="2YdTuyt2Vs7Uolm6UVBZ-50" value="" style="shape=cylinder3;whiteSpace=wrap;html=1;boundedLbl=1;backgroundOutline=1;size=6.028673835125431;" vertex="1" parent="2YdTuyt2Vs7Uolm6UVBZ-67">
          <mxGeometry y="20.022222222222222" width="40" height="17.666666666666668" as="geometry" />
        </mxCell>
        <mxCell id="2YdTuyt2Vs7Uolm6UVBZ-49" value="" style="shape=cylinder3;whiteSpace=wrap;html=1;boundedLbl=1;backgroundOutline=1;size=4.666666666666657;" vertex="1" parent="2YdTuyt2Vs7Uolm6UVBZ-67">
          <mxGeometry x="5" width="30" height="30.622222222222224" as="geometry" />
        </mxCell>
        <mxCell id="2YdTuyt2Vs7Uolm6UVBZ-73" value="" style="group" vertex="1" connectable="0" parent="2YdTuyt2Vs7Uolm6UVBZ-35">
          <mxGeometry x="130" y="82.44444444444444" width="120" height="58.88888888888889" as="geometry" />
        </mxCell>
        <mxCell id="2YdTuyt2Vs7Uolm6UVBZ-68" value="" style="shape=cube;whiteSpace=wrap;html=1;boundedLbl=1;backgroundOutline=1;darkOpacity=0.05;darkOpacity2=0.1;" vertex="1" parent="2YdTuyt2Vs7Uolm6UVBZ-73">
          <mxGeometry y="23.555555555555557" width="120" height="35.333333333333336" as="geometry" />
        </mxCell>
        <mxCell id="2YdTuyt2Vs7Uolm6UVBZ-69" value="" style="shape=cube;whiteSpace=wrap;html=1;boundedLbl=1;backgroundOutline=1;darkOpacity=0.05;darkOpacity2=0.1;size=10;" vertex="1" parent="2YdTuyt2Vs7Uolm6UVBZ-73">
          <mxGeometry x="5" y="17.666666666666668" width="110" height="23.555555555555557" as="geometry" />
        </mxCell>
        <mxCell id="2YdTuyt2Vs7Uolm6UVBZ-70" value="" style="shape=cube;whiteSpace=wrap;html=1;boundedLbl=1;backgroundOutline=1;darkOpacity=0.05;darkOpacity2=0.1;" vertex="1" parent="2YdTuyt2Vs7Uolm6UVBZ-73">
          <mxGeometry width="120" height="35.333333333333336" as="geometry" />
        </mxCell>
        <mxCell id="2YdTuyt2Vs7Uolm6UVBZ-71" value="" style="ellipse;whiteSpace=wrap;html=1;rotation=0;" vertex="1" parent="2YdTuyt2Vs7Uolm6UVBZ-73">
          <mxGeometry x="20" y="5.888888888888889" width="30" height="11.777777777777779" as="geometry" />
        </mxCell>
        <mxCell id="2YdTuyt2Vs7Uolm6UVBZ-72" value="" style="ellipse;whiteSpace=wrap;html=1;rotation=0;" vertex="1" parent="2YdTuyt2Vs7Uolm6UVBZ-73">
          <mxGeometry x="70" y="5.888888888888889" width="30" height="11.777777777777779" as="geometry" />
        </mxCell>
        <mxCell id="2YdTuyt2Vs7Uolm6UVBZ-74" value="*Pallet transport will transport also eventual containing cups!" style="text;html=1;align=center;verticalAlign=middle;resizable=0;points=[];autosize=1;strokeColor=none;fillColor=none;fontColor=#000000;" vertex="1" parent="2YdTuyt2Vs7Uolm6UVBZ-35">
          <mxGeometry x="38" y="138.9777777777778" width="340" height="30" as="geometry" />
        </mxCell>
        <mxCell id="2YdTuyt2Vs7Uolm6UVBZ-75" value="&lt;font style=&quot;font-size: 14px;&quot;&gt;Pallet atStart Destination:&lt;/font&gt;" style="text;html=1;strokeColor=none;fillColor=none;align=left;verticalAlign=middle;whiteSpace=wrap;rounded=0;fontColor=#000000;" vertex="1" parent="2YdTuyt2Vs7Uolm6UVBZ-35">
          <mxGeometry x="39" y="235.55555555555557" width="220" height="35.333333333333336" as="geometry" />
        </mxCell>
        <mxCell id="2YdTuyt2Vs7Uolm6UVBZ-76" value="Product in a:&amp;nbsp;" style="text;html=1;strokeColor=none;fillColor=none;align=left;verticalAlign=middle;whiteSpace=wrap;rounded=0;fontColor=#000000;fontSize=14;" vertex="1" parent="2YdTuyt2Vs7Uolm6UVBZ-35">
          <mxGeometry x="40" y="263.82222222222225" width="220" height="35.333333333333336" as="geometry" />
        </mxCell>
        <mxCell id="2YdTuyt2Vs7Uolm6UVBZ-77" value="Product in b:&amp;nbsp;" style="text;html=1;strokeColor=none;fillColor=none;align=left;verticalAlign=middle;whiteSpace=wrap;rounded=0;fontColor=#000000;fontSize=14;" vertex="1" parent="2YdTuyt2Vs7Uolm6UVBZ-35">
          <mxGeometry x="41" y="294.44444444444446" width="220" height="35.333333333333336" as="geometry" />
        </mxCell>
        <mxCell id="2YdTuyt2Vs7Uolm6UVBZ-78" value="YES" style="text;html=1;align=center;verticalAlign=middle;resizable=0;points=[];autosize=1;strokeColor=none;fillColor=none;fontColor=#000000;fontStyle=1" vertex="1" parent="2YdTuyt2Vs7Uolm6UVBZ-35">
          <mxGeometry x="318" y="235.55555555555557" width="50" height="30" as="geometry" />
        </mxCell>
        <mxCell id="2YdTuyt2Vs7Uolm6UVBZ-79" value="Apfelsaft" style="text;html=1;align=center;verticalAlign=middle;resizable=0;points=[];autosize=1;strokeColor=none;fillColor=none;fontColor=#000000;fontStyle=1" vertex="1" parent="2YdTuyt2Vs7Uolm6UVBZ-35">
          <mxGeometry x="308" y="263.82222222222225" width="70" height="30" as="geometry" />
        </mxCell>
        <mxCell id="2YdTuyt2Vs7Uolm6UVBZ-80" value="Kein Becher" style="text;html=1;align=center;verticalAlign=middle;resizable=0;points=[];autosize=1;strokeColor=none;fillColor=none;fontColor=#000000;fontStyle=1" vertex="1" parent="2YdTuyt2Vs7Uolm6UVBZ-35">
          <mxGeometry x="298" y="294.44444444444446" width="90" height="30" as="geometry" />
        </mxCell>
        <mxCell id="2YdTuyt2Vs7Uolm6UVBZ-81" value="&lt;font style=&quot;font-size: 20px;&quot;&gt;WARNING: Illegal Operation!&lt;br&gt;End Destination is not empty!&lt;/font&gt;" style="text;html=1;align=center;verticalAlign=middle;resizable=0;points=[];autosize=1;strokeColor=none;fillColor=none;fontColor=#FF0000;" vertex="1" parent="2YdTuyt2Vs7Uolm6UVBZ-35">
          <mxGeometry x="50" y="410" width="280" height="60" as="geometry" />
        </mxCell>
        <mxCell id="2YdTuyt2Vs7Uolm6UVBZ-45" value="-" style="strokeWidth=1;shadow=0;dashed=0;align=center;html=1;shape=mxgraph.mockup.forms.comboBox;strokeColor=#999999;fillColor=#ddeeff;align=left;fillColor2=#aaddff;mainText=;fontColor=#666666;fontSize=17;spacingLeft=3;" vertex="1" parent="2YdTuyt2Vs7Uolm6UVBZ-35">
          <mxGeometry x="320" y="189.62" width="70" height="35.333333333333336" as="geometry" />
        </mxCell>
      </root>
    </mxGraphModel>
  </diagram>
</mxfile>
